PathFileType	3	(X/Y/Z)	D:\Vicon Database\Healthy Subjects\S0040\Jan. 30, 2020\Force Plate Walk 10.trc
DataRate	CameraRate	NumFrames	NumMarkers	Units	OrigDataRate	OrigDataStartFrame	OrigNumFrames
100.0	100.0	7	53	mm	100.0	367	338	
Frame#	Time	right_foot_cluster2			right_foot_cluster3			sternum_cluster1			sternum_cluster2			sternum_cluster3			left_asis			right_asis			left_psis			right_psis			sacrum_cluster1			sacrum_cluster2			sacrum_cluster3			left_lat_femoral_epicondyle			left_anterior_thigh15			left_anterior_thigh25			left_anterior_thigh50			left_lateral_thigh25			left_lateral_thigh50			left_thigh_cluster1			left_thigh_cluster2			left_thigh_cluster3			left_fibular_head			left_tibial_tuberosity			left_anterior_shank30			left_lateral_malleolus			left_shank_cluster1			left_shank_cluster2			left_shank_cluster3			left_heel			left_metatarsal2			left_foot_cluster1			left_foot_cluster2			left_foot_cluster3			right_lat_femoral_epicondyle			right_anterior_thigh15			right_anterior_thigh25			right_anterior_thigh50			right_lateral_thigh25			right_lateral_thigh50			right_thigh_cluster1			right_thigh_cluster2			right_thigh_cluster3			right_fibular_head			right_tibial_tuberosity			right_lateral_distal_shank			right_anterior_shank30			right_lateral_malleolus			right_shank_cluster1			right_shank_cluster2			right_shank_cluster3			right_heel			right_metatarsal2			right_foot_cluster1			
		X1	Y1	Z1	X2	Y2	Z2	X3	Y3	Z3	X4	Y4	Z4	X5	Y5	Z5	X6	Y6	Z6	X7	Y7	Z7	X8	Y8	Z8	X9	Y9	Z9	X10	Y10	Z10	X11	Y11	Z11	X12	Y12	Z12	X13	Y13	Z13	X14	Y14	Z14	X15	Y15	Z15	X16	Y16	Z16	X17	Y17	Z17	X18	Y18	Z18	X19	Y19	Z19	X20	Y20	Z20	X21	Y21	Z21	X22	Y22	Z22	X23	Y23	Z23	X24	Y24	Z24	X25	Y25	Z25	X26	Y26	Z26	X27	Y27	Z27	X28	Y28	Z28	X29	Y29	Z29	X30	Y30	Z30	X31	Y31	Z31	X32	Y32	Z32	X33	Y33	Z33	X34	Y34	Z34	X35	Y35	Z35	X36	Y36	Z36	X37	Y37	Z37	X38	Y38	Z38	X39	Y39	Z39	X40	Y40	Z40	X41	Y41	Z41	X42	Y42	Z42	X43	Y43	Z43	X44	Y44	Z44	X45	Y45	Z45	X46	Y46	Z46	X47	Y47	Z47	X48	Y48	Z48	X49	Y49	Z49	X50	Y50	Z50	X51	Y51	Z51	X52	Y52	Z52	X53	Y53	Z53	
367	3.66	1286.1919	124.63104	-289.16165	1290.4677	126.60591	-326.38513	1368.3599	1459.5571	-207.42075	1355.3704	1431.9274	-199.97508	1360.0664	1434.8073	-237.7776	1370.2106	1080.4811	-83.468781	1381.5221	1089.0327	-329.97192	1538.0175	1096.6033	-126.12496	1545.9568	1097.0984	-243.29529	1552.0859	1153.7559	-190.69261	1557.931	1128.002	-202.22432	1558.2263	1123.2173	-162.96516	1467.6151	549.04797	-76.6903	1368.749	623.37225	-128.52327	1341.9825	706.159	-108.56853	1331.2949	845.12976	-80.997017	1454.5072	701.42322	-49.139206	1432.2764	845.90985	-15.761759	1441.0731	800.21136	-12.219091	1445.9009	771.35388	-17.481884	1408.4548	777.99988	-14.377981	1472.4291	467.07764	-74.089111	1421.564	455.30005	-132.31761	1480.7308	209.31143	-153.70212	1548.2838	103.09196	-127.5253	1431.7432	401.89804	-163.18912	1430.5077	373.84079	-156.22215	1447.7238	377.73267	-190.65335	1626.3771	68.925743	-160.15976	1406.4716	67.708656	-166.74376	1466.166	117.65846	-160.85265	1442.1317	101.95348	-150.78154	1439.241	105.54678	-188.9498	1267.8613	569.36615	-360.24646	1200.6622	677.31055	-315.67303	1220.4983	761.95892	-308.12048	1283.3721	877.00763	-302.7229	1319.6125	717.77808	-379.95154	1384.3966	853.15057	-396.6373	1368.5254	802.77893	-405.22806	1347.1035	782.73352	-404.16364	1380.9779	766.34753	-396.21643	1286.2994	506.55408	-362.66711	1225.9321	486.06323	-326.25729	1376.6158	254.37833	-337.94836	1320.6537	252.2749	-302.10541	1402.5286	150.06055	-322.30313	1246.1722	420.89868	-269.78665	1259.0936	395.73279	-261.64655	1243.0193	388.83276	-294.47348	1478.2112	134.98427	-275.63684	1266.899	85.20282	-300.60922	1307.0553	144.04645	-295.83704
368	3.67	1241.4686	124.42217	-291.49509	1245.4469	126.61409	-328.60196	1353.2905	1459.077	-207.53058	1340.7675	1431.1699	-200.33122	1345.6395	1434.021	-238.19324	1356.6182	1079.3342	-83.700058	1367.5867	1089.0061	-330.06839	1523.9944	1095.8455	-127.20944	1532.4675	1096.8813	-244.22009	1538.4198	1153.3369	-191.57085	1544.1927	1127.6128	-203.10077	1544.3417	1122.6088	-163.84499	1464.4659	549.50281	-77.039871	1363.6187	621.56476	-128.39656	1334.1211	703.85437	-108.30688	1320.3461	842.98364	-80.719994	1447.8635	701.60516	-49.598125	1422.6165	845.5368	-16.214479	1432.3467	800.19043	-13.088869	1437.5737	771.44104	-18.118734	1399.9868	777.31488	-14.77705	1470.2893	467.59906	-74.382629	1419.4016	455.25711	-132.36848	1479.6161	209.70766	-153.78932	1547.8119	103.82295	-127.91541	1429.6722	402.03745	-163.22098	1428.6785	373.99252	-156.19696	1445.1022	378.0715	-190.25981	1626.1415	69.723618	-160.59047	1406.252	67.47995	-166.76891	1465.4457	117.80879	-161.13342	1441.634	101.94578	-151.021	1438.7334	105.48234	-189.1579	1250.9872	570.61621	-359.57755	1184.0919	679.58398	-314.94519	1204.7336	763.9892	-307.24432	1268.6544	878.0379	-302.30945	1302.2904	719.15118	-380.34097	1368.0339	854.17633	-398.2933	1351.0851	803.72003	-406.91235	1330.3365	783.62531	-404.24472	1364.6167	767.20331	-397.25125	1267.2297	506.35565	-362.02313	1205.3706	488.87799	-326.4104	1340.146	247.87451	-339.15805	1284.3209	249.36211	-303.98737	1358.7329	141.84212	-324.23346	1220.0469	422.82632	-270.61664	1232.0231	396.26505	-262.56418	1215.4733	390.73935	-295.53043	1433.004	120.88147	-277.7832	1218.5311	87.202744	-303.00192	1263.2104	142.7964	-298.0329
369	3.68	1196.4677	125.67751	-293.74368	1200.6458	127.72663	-330.80731	1338.9023	1457.7635	-208.16414	1326.0913	1430.1014	-200.76707	1330.835	1432.9705	-238.54478	1342.8727	1077.9851	-84.027451	1353.3033	1088.6274	-330.26483	1510.2452	1094.9147	-128.15263	1518.7375	1096.1881	-245.17332	1524.6047	1152.3768	-192.42732	1530.3983	1126.6282	-203.8911	1530.4958	1121.6022	-164.70891	1461.2294	550.03583	-77.286819	1358.3042	619.71429	-128.22948	1326.6458	701.35706	-108.29268	1310.4371	840.31592	-81.089142	1440.934	701.69934	-50.008167	1412.5692	845.086	-16.759497	1423.2966	799.87665	-13.058087	1429.0122	771.24847	-18.300095	1391.3765	776.37311	-15.101413	1468.2844	468.168	-74.699081	1417.0352	455.15836	-132.1774	1478.4927	210.11139	-153.84033	1547.2444	104.6051	-128.35725	1427.3477	402.1395	-163.1174	1426.5605	374.1196	-155.98578	1442.9833	378.50522	-190.7558	1625.7281	70.697693	-160.93044	1405.5873	67.352829	-166.95821	1464.9972	117.87256	-161.49554	1441.0283	101.97181	-151.22588	1438.3065	105.25616	-189.59378	1234.5358	571.1333	-359.01849	1168.2827	680.79181	-313.96292	1189.6914	764.78821	-306.17303	1254.005	878.20349	-301.95462	1285.5741	719.75568	-380.37274	1351.8533	854.53107	-399.66818	1335.2023	803.92474	-407.44955	1313.907	784.00861	-405.09665	1347.5829	767.27173	-398.21851	1248.0065	505.38593	-361.58585	1185.333	491.15631	-326.46616	1302.3743	241.62241	-341.19928	1247.7107	247.23848	-305.38153	1314.6873	134.68614	-326.27582	1196.3148	424.05762	-270.94238	1205.8958	397.06442	-262.98785	1188.8173	392.64673	-295.88483	1387.9014	108.76861	-279.53125	1170.8612	90.313141	-305.49008	1218.8373	142.78719	-300.31735
370	3.69	1152.0179	128.25266	-295.9032	1156.579	130.12021	-332.87796	1323.8621	1456.488	-208.4014	1311.4822	1428.5935	-201.21725	1316.1719	1431.5065	-238.9772	1329.1256	1076.3373	-84.398567	1338.9672	1087.8947	-330.60736	1497.5929	1093.8898	-128.88547	1505.0089	1095.041	-246.17667	1510.7021	1151.1239	-193.38477	1516.4272	1125.2235	-204.89351	1517.2147	1120.3597	-165.38408	1457.8661	550.61584	-77.683403	1353.0071	617.71436	-128.04622	1319.1676	698.82336	-108.28493	1299.4565	837.78284	-81.055038	1433.8961	701.80737	-50.539078	1402.3898	844.48169	-17.162043	1413.8936	799.46832	-13.44771	1420.5657	771.06042	-18.399282	1382.6729	775.29108	-14.96782	1466.2612	468.90897	-74.954239	1414.6753	455.0058	-131.798	1477.285	210.53561	-153.71869	1546.6136	105.34016	-128.76053	1424.9242	402.21698	-162.83	1424.3671	374.14774	-155.68401	1440.7108	378.33664	-190.62566	1625.3007	71.73999	-161.23796	1405.1617	67.067307	-166.99152	1464.3425	117.90948	-161.66267	1440.4022	101.86656	-151.33577	1437.6321	105.14139	-189.70226	1218.4379	570.75763	-358.40402	1153.3727	680.91681	-312.73346	1175.5157	764.21765	-305.00473	1239.4307	877.43646	-301.73871	1269.73	719.37054	-380.3382	1336.0066	854.0968	-400.75659	1319.3188	803.14343	-408.06152	1297.8657	783.37903	-405.31235	1331.6897	766.51917	-398.49631	1228.8418	503.88742	-361.17764	1165.8782	492.8186	-326.22617	1265.801	236.60184	-342.50967	1211.0822	246.06018	-306.39658	1270.6537	128.69411	-328.10843	1173.3029	425.77777	-270.7886	1180.8148	398.18549	-262.77005	1163.045	394.72067	-295.40359	1341.1382	96.642593	-281.95807	1124.1453	94.681808	-307.90103	1175.9282	143.64487	-302.28275
371	3.7	1108.451	132.16306	-297.73563	1113.2429	133.75719	-334.91882	1309.5493	1454.5221	-208.97292	1296.7258	1426.8463	-201.61806	1301.208	1429.8071	-239.27974	1315.3389	1074.4122	-84.824356	1324.5873	1086.7423	-331.07166	1483.0824	1092.1609	-130.15616	1489.9546	1092.9427	-247.51363	1496.7683	1149.4165	-194.50702	1502.4564	1123.2944	-206.02986	1502.6775	1118.3141	-166.87527	1454.3253	551.37598	-77.928543	1347.0372	615.97723	-127.51451	1311.5281	696.2951	-108.24986	1288.6654	835.04504	-81.339661	1426.9353	701.93488	-50.762157	1392.0543	843.8175	-17.70719	1404.5515	799.00305	-13.832609	1411.6245	770.62793	-18.871983	1373.7603	774.1778	-15.327696	1464.1373	469.68628	-75.27153	1411.9745	454.95789	-131.32683	1476.0553	210.99178	-153.52664	1545.9886	106.13972	-129.17412	1422.3253	402.24689	-162.35832	1421.9222	374.28473	-155.32031	1437.8602	378.41501	-190.53688	1624.8564	72.915054	-161.58331	1404.9261	66.598831	-166.87442	1463.6342	117.96019	-161.75696	1439.8142	101.74447	-151.37761	1436.556	105.42397	-189.29028	1202.6443	569.47632	-358.0907	1139.5178	679.95837	-311.33508	1162.2568	762.29968	-303.67621	1224.9592	875.72162	-301.64886	1255.0259	718.03027	-380.28763	1320.4828	852.88446	-401.72482	1304.4318	801.33698	-408.43954	1282.7419	781.6604	-405.29898	1316.5345	765.12207	-398.21936	1209.4816	502.01285	-361.04071	1146.965	493.97232	-325.63467	1229.0446	232.36336	-343.97504	1175.9764	245.22606	-306.91928	1226.9558	123.92522	-329.74036	1151.2532	427.42856	-269.96826	1156.9126	399.41351	-261.99112	1138.6543	396.74677	-294.16379	1294.5699	86.46817	-283.63538	1078.3455	100.64607	-310.06131	1133.6692	145.69228	-304.07382
372	3.71	1066.2452	137.14732	-299.30774	1071.179	138.55681	-336.43622	1294.796	1452.3936	-209.37764	1282.0375	1424.7064	-202.0912	1287.0657	1427.5914	-239.84471	1301.6416	1072.0812	-85.499908	1309.9679	1085.2417	-331.74631	1468.4963	1089.993	-131.56827	1475.5116	1090.9187	-248.73236	1482.6714	1147.2667	-195.70525	1488.2245	1121.2965	-207.38765	1488.3508	1116.163	-168.10593	1450.2023	552.2149	-78.476395	1340.5712	614.2514	-127.54169	1303.6217	693.7243	-108.36431	1277.7186	832.03253	-81.631081	1419.4111	702.0788	-51.369778	1381.3883	843.11218	-18.27363	1394.7235	798.47992	-14.37594	1402.5192	770.33307	-19.483027	1364.6743	773.05029	-15.544879	1461.4026	470.52106	-75.626137	1408.7577	454.9783	-131.08675	1474.5538	211.52319	-153.33598	1545.2404	107.15262	-129.54425	1419.0165	402.38388	-162.27385	1419.073	374.4108	-154.95193	1434.6757	378.49634	-190.37889	1624.2803	74.266006	-161.91257	1404.4324	66.335648	-166.96332	1462.6488	118.21989	-161.51755	1439.1151	101.59048	-151.44614	1436.1207	104.93299	-189.80142	1186.981	567.44745	-358.02344	1126.5981	678.05762	-309.99698	1149.7272	759.05762	-302.50455	1210.4958	873.14429	-301.68073	1240.9425	715.84869	-380.28113	1305.1281	850.98676	-402.44894	1289.4827	799.4527	-408.55569	1267.6873	779.65417	-405.49677	1302.021	763.32813	-397.9541	1190.5529	499.66742	-360.99585	1128.4858	494.69962	-324.69421	1192.5386	229.10251	-345.53262	1141.0674	245.49861	-307.12515	1183.5137	120.51796	-331.38129	1130.0731	428.92972	-268.77896	1134.0828	400.49774	-261.05774	1114.5183	399.18655	-292.6474	1248.5095	77.870277	-285.29944	1034.0242	107.87649	-311.82468	1092.415	148.925	-305.58289
373	3.72	1025.7397	143.26421	-300.48804	1030.551	144.46828	-337.49417	1280.0399	1449.9973	-209.8524	1267.3	1422.2894	-202.55615	1272.4489	1425.1788	-240.3042	1287.8203	1069.5973	-86.12661	1295.1595	1083.3542	-332.44626	1454.3447	1087.4547	-132.98616	1460.9971	1088.6669	-249.99374	1468.6069	1144.8806	-196.79196	1474.0304	1119.2865	-208.62563	1474.0134	1113.8341	-169.38873	1445.787	553.04156	-79.061432	1333.8954	612.52448	-127.82399	1295.4769	691.26025	-108.5789	1266.4799	829.05646	-81.878876	1411.3856	702.21973	-52.027267	1370.4742	842.34344	-18.779037	1384.8446	797.93646	-15.19789	1393.0599	769.97479	-20.058893	1355.2661	771.81812	-15.993873	1457.9645	471.30414	-76.031601	1405.1871	454.9021	-131.05711	1472.5334	212.13292	-153.03204	1544.4464	108.16599	-129.87283	1415.5114	402.50388	-162.14964	1415.9059	374.4603	-154.72751	1431.0457	378.69638	-190.26894	1623.6647	75.785927	-162.20473	1403.6838	66.296959	-166.86946	1461.3837	118.53339	-161.28304	1438.4281	101.46521	-151.28149	1435.1805	104.8988	-189.77216	1171.6417	564.71252	-358.03363	1114.7094	675.14624	-308.82236	1137.6343	754.68542	-301.5813	1196.1187	869.73944	-301.68433	1227.4167	713.25342	-380.85327	1289.7233	848.78149	-403.23499	1274.8546	797.52832	-408.75256	1253.5144	777.31262	-405.58347	1288.0144	761.39575	-398.66193	1171.5629	497.12213	-361.1492	1110.4041	495.15369	-323.50772	1155.6837	227.24193	-347.37839	1107.3363	246.48911	-306.93008	1141.894	118.80956	-333.04214	1109.8346	430.07245	-267.63864	1112.2198	401.35156	-260.03604	1091.4825	401.48062	-290.96484	1203.5248	71.323921	-287.31531	991.52002	116.26798	-312.87341	1052.6434	153.25241	-306.85941
